<?xml version="1.0" encoding="UTF-8"?><svg xmlns="http://www.w3.org/2000/svg" xmlns:xlink="http://www.w3.org/1999/xlink" viewBox="0 0 749 500"><defs><style>.cls-1{fill:url(#Degradado_sin_nombre_7-3);}.cls-2{fill:#fff;}.cls-3,.cls-4{fill:#155bcc;}.cls-5{fill:url(#Degradado_sin_nombre_7-2);}.cls-6{stroke:#92b6ff;}.cls-6,.cls-7{fill:none;stroke-miterlimit:10;}.cls-8,.cls-9,.cls-10,.cls-11,.cls-12,.cls-13,.cls-14,.cls-15{mix-blend-mode:multiply;}.cls-8,.cls-16{fill:#283034;}.cls-17{fill:url(#Degradado_sin_nombre_9-4);}.cls-18{isolation:isolate;}.cls-9{fill:#dd8373;}.cls-9,.cls-12{opacity:.3;}.cls-19,.cls-12{fill:#92b6ff;}.cls-20{fill:#1b2123;}.cls-21{fill:#e0ac19;}.cls-22{fill:url(#Degradado_sin_nombre_7-6);}.cls-23,.cls-13{fill:#d9e7f9;}.cls-24,.cls-25{fill:#467cfb;}.cls-26{fill:url(#Degradado_sin_nombre_9-2);}.cls-4,.cls-10,.cls-11,.cls-14{opacity:.5;}.cls-10,.cls-27{fill:#b78776;}.cls-28{fill:#273238;}.cls-29{fill:url(#Degradado_sin_nombre_9-3);}.cls-30{fill:url(#Degradado_sin_nombre_7-4);}.cls-31{fill:url(#Degradado_sin_nombre_2);}.cls-32{fill:#ebebeb;}.cls-33{fill:#f6fcf7;}.cls-34{fill:url(#Degradado_sin_nombre_9);}.cls-25{opacity:.42;}.cls-35{fill:url(#Degradado_sin_nombre_7-5);}.cls-36{fill:#b3cafe;}.cls-14{fill:#f0c2bf;}.cls-37{fill:url(#Degradado_sin_nombre_7);}.cls-7{stroke:#e0ac19;}</style><linearGradient id="Degradado_sin_nombre_7" x1="113.75" y1="386.22" x2="144.66" y2="386.22" gradientTransform="translate(11.38 27.14) rotate(1.39)" gradientUnits="userSpaceOnUse"><stop offset="0" stop-color="#e2948f"/><stop offset="1" stop-color="#f0c2bf"/></linearGradient><linearGradient id="Degradado_sin_nombre_7-2" x1="243.98" y1="371.61" x2="274.9" y2="371.61" gradientTransform="translate(348.64 -11.64) rotate(164.43) scale(1 -1)" xlink:href="#Degradado_sin_nombre_7"/><linearGradient id="Degradado_sin_nombre_2" x1="-117.39" y1="135.47" x2="-108.4" y2="152.61" gradientTransform="translate(32.3) rotate(-180) scale(1 -1)" gradientUnits="userSpaceOnUse"><stop offset="0" stop-color="#8c5d4a"/><stop offset="1" stop-color="#b78776"/></linearGradient><linearGradient id="Degradado_sin_nombre_9" x1="229.68" y1="119.96" x2="218.73" y2="119.81" gradientTransform="translate(358.62) rotate(-180) scale(1 -1)" gradientUnits="userSpaceOnUse"><stop offset=".5" stop-color="#b78776"/><stop offset="1" stop-color="#8c5d4a"/></linearGradient><linearGradient id="Degradado_sin_nombre_7-3" x1="299.62" y1="415.1" x2="332.54" y2="415.1" gradientTransform="translate(8.29 -5.08) rotate(.96)" xlink:href="#Degradado_sin_nombre_7"/><linearGradient id="Degradado_sin_nombre_7-4" x1="414.14" y1="413.17" x2="447.07" y2="413.17" gradientTransform="translate(795.31 -5.08) rotate(179.04) scale(1 -1)" xlink:href="#Degradado_sin_nombre_7"/><linearGradient id="Degradado_sin_nombre_9-2" x1="367.67" y1="119.29" x2="358.63" y2="117.85" gradientTransform="matrix(1, 0, 0, 1, 0, 0)" xlink:href="#Degradado_sin_nombre_9"/><linearGradient id="Degradado_sin_nombre_9-3" x1="320.16" y1="120.94" x2="328.92" y2="117.12" gradientTransform="matrix(1, 0, 0, 1, 0, 0)" xlink:href="#Degradado_sin_nombre_9"/><linearGradient id="Degradado_sin_nombre_7-5" x1="522.52" y1="413.79" x2="552.59" y2="413.79" gradientTransform="translate(-27.27 46.84) rotate(-4.7)" xlink:href="#Degradado_sin_nombre_7"/><linearGradient id="Degradado_sin_nombre_7-6" x1="557.45" y1="410.49" x2="587.51" y2="410.49" gradientTransform="translate(1062.68 -114.12) rotate(166.7) scale(1 -1)" xlink:href="#Degradado_sin_nombre_7"/><linearGradient id="Degradado_sin_nombre_9-4" x1="179.77" y1="134.53" x2="169.38" y2="134.39" gradientTransform="translate(390.38)" xlink:href="#Degradado_sin_nombre_9"/></defs><g class="cls-18"><g id="BACKGROUND"><rect class="cls-2" width="749" height="500"/></g><g id="OBJECTS"><g><g><ellipse class="cls-32" cx="163.12" cy="432.75" rx="83.43" ry="2.85"/><g><g><g><path class="cls-37" d="M147.01,400.3l-1.16,27.39s-27.55,4.96-30.27,4.79c-2.72-.17,15.44-7.16,8.3-3.8-.7,.33,11.04-8.33,11.49-8.53l-1.74-19.59,13.38-.25Z"/><path class="cls-28" d="M146.16,420.45s-1.68,3.21-4.4,3.41c-4.06,.3-6.39-3.72-6.39-3.72,0,0-2.02,1.53-9.89,6.15-3.66,2.15-5.16,.02-9.65,2.38-2,1.05-4.39,4.75-3.41,4.98,.98,.23,32.59-2.15,33.66-2.79,1.07-.64,.08-10.41,.08-10.41Z"/></g><path class="cls-24" d="M121.78,354.57c-.18,1.72,8.29,49.85,8.29,49.85l20.07,.21-.48-47.08-27.88-2.97Z"/><path class="cls-4" d="M149.66,357.55l-27.88-2.97c-.1,.96,2.48,16.29,4.78,29.7,5.65-.15,13.93-.47,23.36-1.18l-.26-25.54Z"/></g><g><g><path class="cls-5" d="M179.15,404.25l7.83,26.28s27.93-1.93,30.52-2.77c2.59-.83-16.72-3.16-8.97-1.65,.76,.15-12.74-5.38-13.23-5.46l-3.11-19.42-13.03,3.03Z"/><path class="cls-28" d="M184.91,423.58s2.42,2.7,5.1,2.23c4.01-.71,5.28-5.17,5.28-5.17,0,0,2.34,.99,11.1,3.54,4.08,1.19,5.01-1.25,9.93-.06,2.2,.53,5.42,3.53,4.53,3.99-.89,.46-32.12,5.9-33.32,5.53-1.2-.36-2.62-10.07-2.62-10.07Z"/></g><path class="cls-24" d="M192.42,353.73c.6,1.62,4.17,50.36,4.17,50.36l-19.41,5.12-11.06-45.77,26.3-9.71Z"/><path class="cls-4" d="M192.42,353.73l-26.3,9.71,4.37,18.07c5.19-.69,14.39-2.02,24.1-3.84-.93-11.76-1.88-23.17-2.17-23.94Z"/><path class="cls-4" d="M170.48,381.52c3.92,2.31,14.7,1.95,24.41,.13-.93-11.76-2.19-27.14-2.48-27.91"/></g><path class="cls-16" d="M140.79,154.05l-11.35-5.41-9.4,18.91-1.03,114.19-6.81,97.16s57.9,3.18,68.57,2.7,26.28-6.86,26.28-6.86l-23.61-151.89s7.36-48.73,3.64-48.37c-3.72,.36-22.87-26.9-22.87-26.9l-23.42,6.47Z"/><path class="cls-16" d="M129.44,148.63s-24.22,12.66-24.92,14.02c-.7,1.36-13.64,80.97-5.66,94.49,0,0,7.15,3.63,16.53-4.36l-.23-27.46,7.84-22.24,6.44-54.45Z"/><path class="cls-16" d="M164.21,147.58s19.27,8.42,23.37,10.3c4.1,1.89,21.46,63.71,22.37,74.42,.91,10.72-19.06,12.14-20.43,12.14s-.39-34.08-4.4-36.75l-5.81-9.28-15.09-50.84Z"/><path class="cls-8" d="M119.64,182.66l.09,39.91s2.56-23.84-.09-39.91Z"/><path class="cls-32" d="M121.89,152.63s21.44,25.94,32.03,30.33c0,0,14.21-20.75,16.33-31.6v-1.14l-6.04-2.64-34.77,1.05-7.55,4Z"/><path class="cls-16" d="M137.01,98.15l-3.67,3.97s-.21,12.68,2.11,14.25l2.31,1.57-.75-19.78Z"/><path class="cls-31" d="M139.72,138.18c.51-7.06-1.11-16.01-1.75-22.77l4.06,.83,13.31,11.87s-2.51,10.01,.62,14.47c2.81,4.01,8.25,5,8.25,5l-11.23,24c-1.8,0-22.53-15.88-23.54-22.95,0,0,9.81-3.97,10.28-10.45Z"/><path class="cls-34" d="M138.74,118.34s-3.39-5.47-6.86-4.17c-3.47,1.31-2.33,7.43,2.41,9.84,4.74,2.41,6.74,1.59,6.74,1.59l-2.29-7.27Z"/><path class="cls-27" d="M151.54,96.68c5.81,.77,10.87,4.61,12.86,10.12,.25,.7,.48,1.45,.68,2.25,2.33,9.43,5.68,25.36-8.94,31.12,0,0-14.83-1.1-17.89-12.5,0,0-1.59-10.48-1.16-19.48,0,0,.67-11.52,14.46-11.52h0Z"/><path class="cls-10" d="M161.12,116.37s1.18,3.14,3.39,4c2.21,.86-2.16,2.74-3.39,2.04-1.23-.69,0-6.04,0-6.04Z"/><path class="cls-16" d="M154.14,110.45c2.67,.29,.95-2.64-1.06-2.74-2.16-.1-5.64,.98-5.64,4.9,0,0,.03,.59,.66-.03,.18-.18,2.22-2.54,6.04-2.13Z"/><path class="cls-16" d="M162.95,110.33c-2.67,.29-.95-2.64,1.06-2.74,2.16-.1,5.64,.98,5.64,4.9,0,0-.03,.59-.66-.03-.18-.18-2.22-2.54-6.04-2.13Z"/><path class="cls-19" d="M167.15,122.57s-6.96,.75-12.41,1.5c-12.09,1.68-13.11,16.11,.58,16.24,6.34,.06,10.21-5.19,11.43-9.68,1.24-4.57,.41-8.06,.41-8.06Z"/><path class="cls-16" d="M141.23,100.17s-2.63,17.06-3.47,17.76c-.84,.7-.59-1.43-1.74-5.26-1.15-3.83,.31-16.01,5.21-13.03"/><path class="cls-16" d="M156.44,115.72c-1.69-1.34-3.47-1.32-5.04,.18-.69-1.48,.87-3.13,2.37-3.15,1.62-.21,3.11,1.42,2.68,2.96h0Z"/><path class="cls-16" d="M167.64,115.14c-1.69-1.34-3.47-1.32-5.04,.18-.69-1.48,.87-3.13,2.37-3.15,1.62-.21,3.11,1.42,2.68,2.96h0Z"/><path class="cls-6" d="M151.4,128.18s-9.09-9.74-14.04-10.89"/><path class="cls-6" d="M137.95,125.45s1.88,9.92,9.49,11.8"/><path class="cls-16" d="M137.08,108.2s31.22-2.43,36.26-5.13c5.03-2.71-4.21-1.77-4.21-1.77,0,0,10.37-6.16,5.14-6.78-5.24-.62-11.61,2.4-11.61,2.4,0,0,9.55-7.81,3.6-7.81s-22.49,5.03-25.78,9.54-3.39,9.54-3.39,9.54Z"/><g><path class="cls-3" d="M178.36,72.71l-26.56,21.54c-.98,1.03-2.35,1.73-3.85,1.97l-37.37,2.88c-1.15,.18-1.81-.98-.97-1.7l28.08-22.67c.82-.7,1.85-1.21,2.96-1.45l36.57-2.16c1.12-.25,1.88,.82,1.15,1.6Z"/><path class="cls-24" d="M110.57,99.1h.1s27.88-22.52,27.88-22.52c.82-.7,1.85-1.21,2.96-1.45l36.53-2.16,.32-.26c.74-.78-.03-1.84-1.15-1.6l-36.57,2.16c-1.11,.25-2.13,.75-2.96,1.45l-28.08,22.67c-.85,.72-.19,1.88,.97,1.7Z"/><path class="cls-24" d="M140.51,73.31c-1.06,.26-2.04,.74-2.83,1.42l-28.08,22.67c-.85,.72-.19,1.88,.97,1.7h.1s27.88-22.52,27.88-22.52c.79-.68,1.77-1.16,2.83-1.42l-.87-1.85Z"/><path class="cls-24" d="M128.9,91.84l4.44,10.28s9.05,.96,20-4.17c10.95-5.13,11.79-8.14,11.79-8.14l-3.48-7.43-1.55-3.31c-18.71-2.55-31.2,12.78-31.2,12.78Z"/><line class="cls-7" x1="115.49" y1="92.65" x2="122.64" y2="110.8"/><path class="cls-21" d="M122.22,109.76s-.75,.15-.87,.59c-.12,.44,.25,1.05,.58,1.02,.33-.03,1.49-.15,1.7-.59,.21-.44-.17-.87-.25-.98-.21-.29-1.16-.04-1.16-.04Z"/><path class="cls-21" d="M121.78,110.74s2.3,9.1,2.68,9.3l.38,.2s.76,2.62,.97,3.27c.21,.65,.83,.88,.33-.91-.51-1.79,1.39,4.87,1.62,4.78,.24-.09,.51,.14,.45-.81-.06-.96-2.08-6.98-2.08-6.98,0,0,.44,.83,.71,.7,.27-.13-3.81-10.14-3.81-10.14l-1.24,.58Z"/></g><path class="cls-24" d="M137.95,142.5s-8.78,8.4-10.23,20.69c-1.45,12.29,3.44,120.65,3.44,120.65,0,0-10.57,24.93-11.52,26.97-.95,2.04-9.29-18.13-10.42-25.31-1.13-7.18,7.91-125.86,10.42-131.66,2.14-4.94,14.44-12.18,18.31-11.34Z"/><path class="cls-20" d="M116.47,224.63s4.13,1.71,4.37,4.79c.24,3.08,2.86,23.37-2.84,24.11-5.7,.74-4.8-26.83-1.54-28.89Z"/><path class="cls-24" d="M155.44,141.67s.85,1.92,2.69,4.82c2.2,3.46,5.51,8.51,6.51,15.84,1.67,12.26,5.74,119.14,5.74,119.14,0,0,10.57,24.93,11.52,26.97,.95,2.04,11.86-20.67,12.99-27.85,1.13-7.18-18.68-124.4-22.66-129.31-1.71-2.11-10.69-9.61-16.8-9.61Z"/><g><g><polygon class="cls-36" points="191.56 248.85 119.64 249.03 119.8 204.2 191.71 204.03 191.56 248.85"/><path class="cls-25" d="M121.93,211.74l-.1,30.19c2.88,0,5.23,2.26,5.44,5.15l56.67-.14c.24-2.89,2.6-5.17,5.48-5.18l.1-30.19c-3.03,0-5.47-2.5-5.46-5.61l-56.62,.14c-.01,3.1-2.47,5.63-5.5,5.63Z"/><g><g><polygon class="cls-24" points="152.63 244.44 152.12 242.93 150.55 242.92 153.98 238.03 156.05 239.55 152.63 244.44"/><polygon class="cls-24" points="158.6 244.43 159.12 242.91 160.69 242.9 157.3 238.02 155.21 239.55 158.6 244.43"/></g><g><path class="cls-3" d="M160.28,237.29c0,.48-.6,.86-.74,1.3-.14,.45,.12,1.12-.15,1.5-.27,.38-.97,.33-1.35,.61-.37,.27-.54,.98-.98,1.13-.43,.14-.96-.32-1.43-.32-.47,0-1.01,.46-1.43,.32-.44-.15-.61-.85-.97-1.12-.37-.27-1.07-.22-1.34-.6-.27-.38,0-1.04-.14-1.5-.14-.44-.74-.81-.73-1.3,0-.48,.6-.86,.74-1.3,.14-.45-.12-1.12,.15-1.5,.27-.38,.97-.33,1.34-.61,.37-.27,.54-.98,.98-1.13,.43-.14,.96,.32,1.43,.32,.47,0,1.01-.46,1.43-.32,.44,.15,.61,.85,.97,1.12,.37,.28,1.07,.22,1.34,.6,.27,.38,0,1.04,.14,1.5,.14,.44,.74,.81,.73,1.3Z"/><path class="cls-24" d="M158.59,237.29c0,1.67-1.33,3.03-2.96,3.04-1.63,0-2.95-1.35-2.94-3.02,0-1.67,1.33-3.03,2.96-3.04,1.63,0,2.95,1.35,2.94,3.02Z"/></g></g><polygon class="cls-3" points="175.79 215.53 135.63 215.63 135.65 211.57 175.81 211.47 175.79 215.53"/><polygon class="cls-4" points="182.3 227.36 129.59 227.48 129.6 225.45 182.31 225.33 182.3 227.36"/><polygon class="cls-4" points="182.31 223.99 129.6 224.11 129.61 222.08 182.32 221.96 182.31 223.99"/><polygon class="cls-4" points="182.29 230.99 129.58 231.12 129.59 229.09 182.3 228.96 182.29 230.99"/><g><path class="cls-3" d="M133.73,243.4c.67-1.91,1.41-3.8,2.22-5.66-.1-.04-.2-.09-.3-.13-.19,.49-.38,.97-.58,1.46-.2,.49-.43,.99-.59,1.5-.08,.24-.06,.53,.23,.6,.32,.08,.74-.21,.98-.39-.08-.06-.16-.13-.24-.19-.12,.38-.08,.87,.28,1.09,.3,.18,.69,.1,.88-.21,.07-.11-.02-.25-.14-.25-.31-.01-.52,.3-.45,.6,.1,.39,.6,.56,.94,.65,.34,.09,2.22,.17,1.81-.64-.04-.07-.11-.09-.18-.08-.43,.06-.42,.68-.06,.84,.72,.32,.94-.79,1.5-.9-.07-.05-.14-.11-.21-.16-.02,.19,.11,.33,.29,.37,.27,.05,.39-.21,.63-.25,.23-.04,.47,.21,.64,.33,.19,.14,.39,.24,.62,.26,.21,.02,.21-.32,0-.34-.37-.03-.61-.39-.94-.53-.13-.06-.27-.08-.41-.05-.06,.02-.13,.05-.18,.08,0,0-.34,.24-.33,.13,.01-.12-.11-.18-.21-.16-.24,.05-.42,.19-.58,.38-.09,.11-.16,.23-.26,.34-.05,.07-.12,.12-.19,.17-.18,.11-.26,.05-.24-.18l-.18-.08c.04,.08-.57,.19-.6,.2-.18,.02-.37,.02-.55,0-.19-.02-.37-.07-.55-.14-.1-.04-.2-.08-.29-.14-.07-.05-.32-.38-.03-.37-.05-.08-.09-.17-.14-.25-.12,.2-.4,.16-.52,0-.14-.18-.11-.42-.04-.62,.04-.13-.12-.28-.24-.19-.11,.09-.23,.16-.35,.23-.13,.07-.42,.24-.39-.02,.01-.14,.12-.31,.17-.45,.07-.18,.14-.36,.22-.55,.26-.67,.53-1.33,.79-2,.07-.18-.22-.3-.3-.13-.82,1.89-1.57,3.8-2.25,5.74-.07,.2,.24,.29,.32,.09h0Z"/><path class="cls-3" d="M172.65,241.29c.19-.85,.42-1.68,.7-2.51-.11-.03-.21-.06-.32-.09-.21,.72,.72,1.12,1.07,.46-.1-.03-.2-.06-.31-.08,.02,.26,.04,.52,.07,.79,.01,.13,.18,.24,.28,.12,1.5-1.83,2.45-4.04,2.76-6.4-.11,0-.22,0-.33,0-.3,2.41,.03,4.87,.93,7.11,.05-.07,.11-.14,.16-.21-2.42-.22-4.84-.38-7.26-.47-.18,0-.23,.3-.04,.33,2.18,.33,4.38,.47,6.59,.41,.21,0,.21-.34,0-.34-2.18,.06-4.35-.07-6.5-.39-.01,.11-.03,.22-.04,.33,2.42,.09,4.85,.25,7.26,.47,.1,0,.2-.12,.16-.21-.9-2.22-1.22-4.63-.92-7.02,.03-.22-.3-.21-.33,0-.3,2.26-1.23,4.41-2.66,6.16,.09,.04,.19,.08,.28,.12-.02-.26-.04-.52-.07-.79-.01-.15-.22-.24-.31-.08-.17,.32-.58,.13-.48-.2,.06-.21-.25-.29-.32-.09-.28,.82-.51,1.66-.7,2.51-.05,.21,.27,.3,.32,.09h0Z"/></g></g><path class="cls-27" d="M115.13,228.39s5.19-7.42,6.45-7.13c1.25,.28,8.89,4.73,9,7.46s-2.96,6.8-2.96,6.8l-4.33-2.49s-5.73,7.8-7.43,7.04c-1.7-.76-4.68-.16-.73-11.68Z"/><path class="cls-27" d="M198.46,224.82s-5.19-7.42-6.45-7.13c-1.25,.28-8.89,4.73-9,7.46s2.96,6.8,2.96,6.8l4.33-2.49s5.73,7.8,7.43,7.04c1.7-.76,4.68-.16,.73-11.68Z"/></g><path class="cls-16" d="M102.85,229.53l13.62-4.9-1.34,3.76s2.7,24.28,2.88,25.14c.17,.85-12.02,5.16-13.49,4.38-1.47-.79-1.67-28.37-1.67-28.37Z"/></g></g><path class="cls-24" d="M182.53,135.04c4.76,2.19,10.56,.69,13.67-3.51,.4-.54,.09-1.4-.45-1.71-.64-.37-1.31-.1-1.71,.45-2.26,3.04-6.84,4.19-10.25,2.62-.61-.28-1.35-.17-1.71,.45-.32,.54-.17,1.43,.45,1.71h0Z"/><path class="cls-24" d="M91.94,290.26c4.54,1.32,7.64,6.49,6.68,11.13-.44,2.13-2.22,5.4-4.9,4.41-.82-.3-1.48-1.1-1.16-2.01s1.33-1.47,2.14-1.8c3.08-1.25,6.76,.16,9.39,1.84,1.36,.87,2.62-1.29,1.26-2.16-3.17-2.03-7.51-3.47-11.21-2.13-1.44,.52-2.91,1.41-3.66,2.79-.79,1.46-.62,3.26,.47,4.53s2.92,1.78,4.55,1.51c1.85-.31,3.34-1.65,4.29-3.2,1.77-2.89,1.87-6.63,.69-9.75-1.36-3.57-4.17-6.5-7.88-7.58-1.55-.45-2.21,1.96-.66,2.41h0Z"/><path class="cls-24" d="M201.25,293.84c.05-.21,.1-.42,.17-.62,.03-.1,.07-.2,.11-.3-.06,.17-.03,.06,.02-.04,.18-.37,.39-.71,.63-1.04-.16,.22,.05-.06,.07-.08,.07-.08,.14-.16,.21-.24,.13-.14,.27-.28,.42-.41,.07-.06,.14-.12,.2-.18,.21-.19-.13,.08,.08-.07,.18-.12,.35-.25,.53-.36,.17-.1,.34-.2,.52-.28,.1-.05,.2-.09,.29-.14,.13-.06-.17,.06,.05-.02,.41-.14,.81-.25,1.23-.34,.24-.05-.12,0,.04,0,.11,0,.21-.02,.32-.03,.19-.01,.39-.02,.58-.01,.11,0,.21,0,.32,.02,.05,0,.38,.07,.09,0,.21,.05,.42,.08,.63,.14,.63,.17,1.39-.21,1.54-.87s-.2-1.35-.87-1.54c-4.05-1.1-8.68,1.62-9.59,5.75-.14,.64,.19,1.38,.87,1.54,.63,.14,1.39-.19,1.54-.87h0Z"/><path class="cls-28" d="M109.06,141.14c1.66-1,3.33-2,4.99-2.99,.56-.34,.82-1.14,.45-1.71s-1.11-.81-1.71-.45c-1.66,1-3.33,2-4.99,2.99-.56,.34-.82,1.14-.45,1.71s1.11,.81,1.71,.45h0Z"/><path class="cls-28" d="M197.71,387.69c.3,1.34,.59,2.68,.89,4.01,.14,.64,.92,1.07,1.54,.87,.67-.22,1.03-.85,.87-1.54-.3-1.34-.59-2.68-.89-4.01-.14-.64-.92-1.07-1.54-.87-.67,.22-1.03,.85-.87,1.54h0Z"/></g><g><g><ellipse class="cls-32" cx="356.34" cy="432.7" rx="84.76" ry="2.9"/><g><g><path class="cls-27" d="M420.47,153.7s2.68-25.96,3.38-34.16c.71-8.2,2.51-13.72,1.39-14.19-1.38-.58-2.55,6.51-3.53,6.28-.31-.07,2.01-8.68,.13-9.25-1.85-.56-2.71,8.53-3.38,8.62-.67,.09,1.14-9.6-.97-11.07-1.3-.9-1.61,3.45-2.13,7.08-.49,3.41-.66,5.43-1.1,5.43-.27,0,.91-9.59-1.2-9.2-1.3,.24-1.47,12.89-4.02,18.66-.52,1.17-3.7,20.79-5.94,28.5l17.36,3.3Z"/><path class="cls-27" d="M412.19,119.95s-2.88-8.76-5.47-9.46c-2.59-.71,3.76,11.35,2.09,15.13-1.67,3.77,3.38-5.66,3.38-5.66Z"/></g><path class="cls-28" d="M364.4,145.41s8.46,3.3,9.94,4.24c1.48,.94,23.22,17.4,23.22,17.4l6.74-38.05s26.91,13.34,27.91,17.65c1.47,6.36-19.62,64.85-25.27,68.84s-33.66-3.54-33.66-3.54l-8.88-66.54Z"/><g><g><path class="cls-1" d="M334.12,398.02l-1.02,29.19s-29.3,5.51-32.2,5.34c-2.89-.16,16.38-7.75,8.81-4.11-.74,.36,11.69-8.96,12.17-9.18l-2.01-20.85,14.25-.38Z"/><polygon class="cls-24" points="318.07 354.22 315.62 405.14 335.79 406.53 339.96 354.22 318.07 354.22"/><path class="cls-28" d="M333.37,419.49s-1.77,3.44-4.66,3.67c-4.33,.35-6.84-3.91-6.84-3.91,0,0-2.14,1.65-10.49,6.63-3.88,2.32-5.49,.06-10.25,2.61-2.13,1.14-4.63,5.1-3.59,5.33,1.04,.23,34.69-2.55,35.82-3.24,1.14-.7,0-11.08,0-11.08Z"/><path class="cls-4" d="M318.07,354.22l-1.22,25.36c4.56,.66,12.04,1.62,20.9,2.3l2.21-27.66h-21.9Z"/></g><g><path class="cls-30" d="M354.92,398.02l1.02,29.19s29.3,5.51,32.2,5.34c2.89-.16-16.38-7.75-8.81-4.11,.74,.36-11.69-8.96-12.17-9.18l2.01-20.85-14.25-.38Z"/><polygon class="cls-24" points="375.86 354.22 373.42 405.14 353.26 406.53 353.96 354.22 375.86 354.22"/><path class="cls-28" d="M355.67,419.49s1.77,3.44,4.66,3.67c4.33,.35,6.84-3.91,6.84-3.91,0,0,2.14,1.65,10.49,6.63,3.88,2.32,5.49,.06,10.25,2.61,2.13,1.14,4.63,5.1,3.59,5.33-1.04,.23-34.69-2.55-35.82-3.24-1.14-.7,0-11.08,0-11.08Z"/><path class="cls-4" d="M374.53,381.92l1.33-27.7h-21.9l-.38,28.43c6.91,.12,14.07-.05,20.95-.73Z"/></g></g><path class="cls-28" d="M325.37,144.89l-9.94,4.75s-7.6,40.06-6.82,58.64c.59,14.02,10.02,4.93,8.97,18.55-2.1,27.3-22.03,145.19-22.03,145.19,0,0,48.84,14.86,97.75,1.32,0,0-12.44-160.64-12.38-168.38s-7.92-55.99-7.92-55.99l-11.09-4.07h-36.54Z"/><path class="cls-16" d="M354.07,83.9s-1.23-.82-6.1,1.18c-2.68,1.1-4.54-1.88-7.43-2-2.88-.11-2.88,3.55-7.54,2.61-4.66-.95-4.05-.75-4.94,3.46-.89,4.21-.48,9.41-2.47,9.79-2,.37-11.41-.29-12.54,5.1-.92,4.39,3.55,8.42,.89,11.42-2.66,2.99-5.1,4.66-3.55,9.09,1.55,4.43,4.66,1.22,2.77,6.1-1.88,4.88,.55,4.99,1.55,5.65,1,.67-1.18,2.75-.11,3.55,2.65,1.96,4.5-1.84,5.87-.78,1.7,1.32,3.09,6.75,8.54,3.33,2.92-1.84,3.21-3.88,7.54-.44,4.32,3.44,3.83-1.69,10.02,.85,4.32,1.77,6.05,.7,10.26-.52s4.59,1.46,7.83,.24c4.47-1.68-.5-8.58,3.7-8.11,5.92,.66,8.74-4.55,6.96-7.98-1.77-3.44-.65-4.54-.76-6.98-.11-2.44-5.99-4.43-5.1-6.76,.89-2.33,4.37-5.73,2.04-9.5s-8.72,.68-10.61-3.87c-1.88-4.54-2.61-2.59-5.16-2.7-2.55-.11,2.2-1.12,1.75-4.55-.44-3.44-1-7.97-3.44-8.17Z"/><path class="cls-6" d="M322.38,115.07c-.82,2.47,1.13,8.04,4.18,12.74"/><path class="cls-6" d="M362.43,113.9c2.5,.91,.92,7.04-2.28,12.53"/><path class="cls-32" d="M320.62,147.17l24.22,34.54,23.97-34.54-5.93-2.27-32.93-.68h-2.53s-3.41,.58-6.8,2.95Z"/><g><path class="cls-27" d="M344.58,168.32s16.49-20.46,17.33-23.43c-1.78-.47-13.63-4.15-13.63-4.15l-.4-16.23-10.09,.05,.07,13.97-.07,2.24-12.42,4.12c.53,2.65,19.21,23.43,19.21,23.43Z"/><path class="cls-14" d="M354.01,142.31c-2.18-.58-5.74-1.57-5.74-1.57l-.4-16.23-10.09,.05,.07,13.97-.07,2.24-4.45,1.67c4.33,2.52,10.98,4.32,20.68-.14Z"/></g><g><path class="cls-26" d="M360.23,113.81s4.51-.45,5.51,3.61c1.02,4.15-5.77,5.1-5.77,5.1l.26-8.71Z"/><g class="cls-11"><path class="cls-9" d="M359.57,115.38s3.9-.62,5.1,3.12c0,0-3.27-1.99-5.34-.32l.24-2.8Z"/></g></g><g><path class="cls-29" d="M326.1,113.96s-4.83,.33-5.14,4.5c-.31,4.26,6.54,4.06,6.54,4.06l-1.4-8.56Z"/><g class="cls-15"><path class="cls-9" d="M326.7,115.42s-3.95,.04-4.51,3.93c0,0,2.89-2.51,5.21-1.21l-.7-2.72Z"/></g></g><path class="cls-27" d="M359,107.67c-1.29-3.35-3.58-13.17-15.88-14.09-5.16-.39-16.14,5.21-16.95,16.01-1.27,17.12,2.43,27.81,17.43,27.74,16.15-.07,20.25-17.07,15.41-29.66Z"/><path class="cls-16" d="M344.69,126.28c.37,0,.79-.06,1.07-.29,.21-.17,.32-.42,.32-.71,0-.88-.71-1.17-1.18-1.36-.2-.08-.42-.17-.46-.25-.13-.29-.15-2.34-.12-3.57,0-.11-.08-.19-.19-.19-.13,0-.19,.08-.19,.19-.01,.54-.05,3.28,.16,3.73,.1,.22,.36,.33,.66,.45,.46,.19,.94,.38,.94,1,0,.18-.06,.32-.18,.41-.38,.31-1.28,.19-1.59,.12-.1-.02-.2,.04-.23,.14-.02,.1,.04,.2,.14,.23,.03,0,.41,.09,.84,.09Z"/><g><path class="cls-16" d="M356.21,114.75c.26-.6-3.89-4.17-6.7-2.7-2.48,1.3,2.3,2.39,4.71,2.85,2.41,.45,1.99-.15,1.99-.15Z"/><path class="cls-16" d="M330.37,114.59c-.38-.53,2.94-4.89,5.99-4.03,2.7,.76-1.75,2.82-4.01,3.76-2.27,.95-1.98,.27-1.98,.27Z"/></g><path class="cls-33" d="M348.47,129.55l-10.71-.06s1.32,3.95,5.77,4.01c4.23,.06,4.94-3.95,4.94-3.95Z"/><path class="cls-19" d="M330.34,125.61c.31-1.16,1.29-2.01,2.47-2.18,2.5-.35,7.94-.91,11.71-.67,5.54,.35,9.17,1.27,9.95,1.89,.77,.62,1.62,5.43-.68,9.66-2.05,3.79-8.61,4.4-13.75,3.95-4.03-.36-7.63-2.13-9.15-4.75-1.03-1.76-1.17-5.57-.55-7.89Z"/><path class="cls-6" d="M360.15,126.43c-2.08,3.56-4.84,6.85-7.63,8.28"/><path class="cls-6" d="M354.12,126.28s2.88-13.06,7.88-12.48c.16,.02,.3,.05,.43,.1"/><path class="cls-6" d="M326.55,127.81c1.95,3.01,4.36,5.66,6.78,6.9"/><path class="cls-6" d="M331.73,126.28s-2.88-13.06-7.88-12.48c-.76,.09-1.24,.55-1.48,1.27"/><g><path class="cls-16" d="M332.12,119.71c-.51-1.65,1.11-3.4,2.79-3.32,1.55-.12,3.51,1.25,3.12,2.95-1.92-1.41-4.18-1.31-5.91,.37h0Z"/><path class="cls-16" d="M348.47,119.71c-.51-1.65,1.11-3.4,2.79-3.32,1.55-.12,3.51,1.25,3.12,2.95-1.92-1.41-4.18-1.31-5.91,.37h0Z"/></g><path class="cls-16" d="M324.22,108.63s3.01,.5,3.84-.91c.83-1.41,.67-6,1.87-5.78,1.2,.21,2.95,5.04,6.36,4.45,3.41-.58,3.33-4.55,4.41-3.24s1.08,2.91,2.66,2.66c1.58-.25,1.83-3.01,3.08-2.12,1.25,.89,2.19,3.15,6.08,1.64,3.89-1.51,.46-3.12,1.6-3.4,1.13-.28,.14,2.88,2.8,3.8s6.75-.41,6.75-.41l-2.75-5.99-7.4-1.66h-14.05l-16.71,2.58,1.48,8.4Z"/><g><path class="cls-3" d="M380.95,89.05l-34.47,8.56c-1.37,.54-2.98,.6-4.49,.16l-36.42-13.75c-1.16-.34-1.27-1.72-.16-2.03l36.39-8.96c1.08-.3,2.27-.32,3.42-.07l35.35,14.07c1.16,.26,1.41,1.6,.38,2.01Z"/><path class="cls-24" d="M305.57,84.02l.1,.04,36.13-8.9c1.08-.3,2.27-.32,3.42-.07l35.31,14.06,.42-.1c1.04-.41,.79-1.75-.38-2.01l-35.35-14.07c-1.15-.26-2.34-.23-3.42,.07l-36.39,8.96c-1.11,.31-1.01,1.69,.16,2.03Z"/><path class="cls-24" d="M345.09,72.95c-1.11-.23-2.25-.2-3.29,.09l-36.39,8.96c-1.11,.31-1.01,1.69,.16,2.03l.1,.04,36.13-8.9c1.04-.29,2.18-.31,3.29-.09v-2.13Z"/><path class="cls-24" d="M326.01,85.27l-.41,13.67s8.15,2.84,20.71,2.84,14.67-2.46,14.67-2.46v-12.32c-16.47-10.63-34.97-1.72-34.97-1.72Z"/><line class="cls-7" x1="313.04" y1="80.12" x2="311.77" y2="100.34"/><path class="cls-21" d="M311.83,99.18s-.77-.19-1.07,.17c-.3,.36-.22,1.1,.1,1.21,.32,.12,1.47,.52,1.86,.2,.39-.32,.22-.89,.19-1.03-.08-.36-1.08-.55-1.08-.55Z"/><path class="cls-21" d="M310.98,99.91s-1.84,9.57-1.58,9.93l.27,.35s-.44,2.8-.53,3.5c-.09,.7,.4,1.19,.71-.71,.31-1.9-.84,5.19-.58,5.21s.42,.36,.78-.56,1.12-7.48,1.12-7.48c0,0,.04,.97,.35,.97s.88-11.21,.88-11.21h-1.42Z"/></g><path class="cls-24" d="M337.78,140.78s-15.21-.11-17.92,13.25c-2.71,13.36-15.23,140.83-15.23,140.83,0,0,6.96,24.31,8.41,25.29,1.44,.98,13.17-16.98,14.46-19.3s4.47-156.62,10.28-160.06Z"/><path class="cls-24" d="M348.27,140.75s13.09,.04,18.27,6.79,14.07,94.49,20.67,113.04c6.6,18.55,14.09,32.62,14.09,32.62,0,0-1.85,20.62-2.96,20.95-1.11,.33-21.12-8.09-21.67-8.87-.55-.78-8.34-28.77-10.84-44.23-3.8-23.47-6.75-98.15-8.12-105.79-1.38-7.72-2.88-12.65-9.44-14.52Z"/><rect class="cls-19" x="309.79" y="197.75" width="50.57" height="67.42" rx="2.38" ry="2.38" transform="translate(57.77 -66.79) rotate(12.45)"/><path class="cls-27" d="M335.79,226.02s12.53,2.16,13.94,2.08c1.41-.08,8.06-1.66,8.15,0,.08,1.66-4.16,3.37-4.16,3.37,0,0,7.9,.96,9.39,2.2,1.5,1.25-1,2.83-1.08,3.91-.08,1.08-.08,5.99-.91,8.15-.83,2.16-3.57,3.35-4.15,3.85-.58,.5-29.48-14.47-29.48-14.47l8.29-9.09Z"/><path class="cls-28" d="M315.43,149.65l-9.42,5.15c-4.02,3.96-7.77,11.54-8.93,17.06-3.78,18.01-14.52,55.99-12.86,60.47,.85,2.28,31.7,19.41,47,20.74l11.4-35.87-34.01-8.91,6.82-58.64Z"/><rect class="cls-12" x="320.95" y="203.08" width="39.96" height="8.98" transform="translate(52.76 -68.61) rotate(12.45)"/></g></g><path class="cls-24" d="M408.61,329.5c-6.99-.57-12.83,8.66-7.48,14.12,1.18,1.2,2.86,1.91,4.54,1.62s2.98-1.55,3.58-3.04,.18-3.21-1.07-4.24c-1.4-1.15-3.29-1.34-5.03-1.06-3.63,.58-6.78,3.59-7.5,7.2-.31,1.57,2.1,2.24,2.41,.66,.44-2.22,1.99-4.13,4.1-5.01,1-.42,2.2-.64,3.27-.4,.8,.18,1.7,.69,1.6,1.54s-.83,1.58-1.6,1.83c-.96,.31-1.94-.26-2.59-.94-1.56-1.66-1.59-4.2-.55-6.13,1.24-2.31,3.67-3.87,6.33-3.65,.67,.06,1.25-.61,1.25-1.25,0-.72-.57-1.19-1.25-1.25h0Z"/><path class="cls-28" d="M292.68,256.93c-.24,1.64-.35,3.46,.67,4.88,.51,.7,1.15,1.25,1.99,1.52,.79,.26,1.64,.13,2.37-.22s1.41-1.12,1.54-1.95c.05-.34,.06-.65-.13-.96-.15-.26-.45-.51-.75-.57-.6-.14-1.43,.18-1.54,.87-.01,.08-.04,.16-.06,.24-.05,.2,.15-.26,.03-.07-.03,.05-.07,.1-.1,.16,.14-.17,.16-.21,.08-.11-.03,.03-.06,.06-.09,.09-.09,.09-.22,.1,.06-.04-.05,.03-.11,.07-.16,.1-.04,.02-.3,.14-.08,.05s-.04,0-.09,.02c-.06,.02-.13,.02-.19,.04,.23-.03,.28-.03,.14-.02-.03,0-.06,0-.1,0-.07,0-.15-.01-.22,0,.25-.03,.25,.04,.08,0-.08-.02-.16-.05-.24-.07-.09-.03-.04-.01,.14,.06-.04-.02-.08-.04-.12-.06-.06-.03-.12-.07-.18-.11-.04-.03-.08-.05-.11-.08,.15,.12,.19,.15,.12,.09-.11-.11-.22-.21-.32-.33-.16-.18,.14,.22,.02,.03-.05-.08-.11-.16-.15-.24-.04-.06-.07-.13-.1-.19-.02-.04-.04-.09-.06-.13l.07,.17c0-.08-.07-.2-.09-.27-.03-.09-.05-.18-.07-.26-.01-.06-.07-.2-.05-.27,.02,.18,.03,.2,.01,.06,0-.06-.01-.12-.01-.18-.01-.18-.01-.36-.01-.54,0-.21,.02-.43,.04-.64,0-.09,.02-.18,.03-.27,.02-.14,.01-.12,0,.06,0-.06,.02-.12,.03-.18,.05-.35,.06-.65-.13-.96-.15-.26-.45-.51-.75-.57-.59-.14-1.44,.18-1.54,.87h0Z"/><path class="cls-28" d="M381.46,140.89v3.99c0,.65,.57,1.28,1.25,1.25s1.25-.55,1.25-1.25v-3.99c0-.65-.57-1.28-1.25-1.25s-1.25,.55-1.25,1.25h0Z"/></g><g><g><ellipse class="cls-32" cx="575.9" cy="432.7" rx="84.76" ry="2.9"/><g><path class="cls-16" d="M548.85,106.53s-3,8.23,.99,10.99c3.99,2.76,8.09,2.47,7.26,5.39-.83,2.91-2.54,5.17,1.58,6.2,4.12,1.03,3.54,2.87,2.92,3.98-.62,1.11-1.95,2.01-1.45,4.08,.5,2.07,2.71,2.98,1.89,5.16-.82,2.19-3.36,4.92-.94,9.95,2.42,5.03-4.72,7.02-4,10.35,.72,3.33,7.84,.18,10.92,0,3.08-.18,5.41,3.17,9.87,2.22,4.46-.95,1.51-4.37,4.54-6.1,7.55-4.3,7.68-6.08,6.65-10.09-.93-3.6-8.24-6.45-3.66-10.25,4.58-3.8,3.19-13.16-1.22-15.49-6-3.18-3.53-9.65-11.15-9.72-6.55-.06-8.78-14.86-11.45-14.86s-6.72-2.14-6.72-2.14l-6.03,10.34Z"/><g><path class="cls-27" d="M475.7,117.44s-13.66-22.24-17.85-29.33c-4.19-7.09-8.21-11.28-7.4-12.19,.99-1.13,5.12,4.76,5.9,4.14,.25-.2-5.57-6.95-4.12-8.28,1.42-1.3,6.13,6.51,6.78,6.31,.64-.21-5.18-8.15-3.92-10.4,.78-1.38,2.94,2.42,4.98,5.46,1.92,2.86,2.95,4.6,3.35,4.42,.25-.12-4.97-8.25-2.9-8.82,1.27-.35,6.91,10.98,11.7,15.08,.97,.83,12.34,17.14,17.7,23.12l-14.21,10.49Z"/><path class="cls-27" d="M468.54,83.44s-1.2-9.14,.83-10.9c2.03-1.76,1.53,11.86,4.67,14.54s-5.5-3.64-5.5-3.64Z"/></g><path class="cls-27" d="M643.82,101.22s8.2-8.07,9.89-9.38c1.69-1.31,6.08-4.8,8.76-.74,1.51,2.3,1.77,1.52,2.1,3.81,.13,.91,1.3,1.55,1.8,2.52,.5,.97,.51,2.19,1.17,3.23,1.27,1.99-6.1,5.68-8.44,6.03-2.35,.35-5.57,1.16-7.29,1.99s-6.93,5.16-6.93,5.16l-8.41-6.99,7.34-5.63Z"/><g><path class="cls-23" d="M665.1,124.74s-6.45-19.69-12.06-28.55c-7.21-11.39-19.64-23.59-19.64-23.59,0,0,5.69-9.11,15.52-5.25,0,0,4.03,20.02,17.94,33.65,13.91,13.63,16.65,11.97,16.44,16.07-.21,4.1-9.65,11.64-14.2,10.95-3.68-.56-3.98-3.29-3.98-3.29Z"/><path class="cls-13" d="M665.61,123.65c.39-1.74,1.22-3.4,2.35-4.82,1.11-1.45,2.6-2.6,4.24-3.42,1.65-.77,3.48-1.26,5.33-1.18,.92,.04,1.83,.22,2.68,.52,.85,.32,1.65,.73,2.41,1.17-1.69-.58-3.39-1.03-5.1-.95-1.71,.07-3.37,.56-4.91,1.29-1.53,.74-2.93,1.77-4.09,3.04-1.17,1.27-2.17,2.72-2.91,4.33Z"/></g><g><g><path class="cls-35" d="M556.02,398.01l1.71,26.61s-26.13,7.64-28.77,7.75c-2.64,.11,14.19-8.52,7.63-4.53-.64,.39,9.81-9.2,10.23-9.44l-3.7-18.77,12.91-1.63Z"/><path class="cls-28" d="M557.28,417.59s-1.3,3.28-3.9,3.75c-3.9,.71-6.56-2.94-6.56-2.94,0,0-1.8,1.69-8.93,6.97-3.32,2.46-4.99,.55-9.08,3.29-1.83,1.23-3.75,5.05-2.78,5.17,.97,.12,31.29-5.44,32.26-6.17,.97-.73-1-10.07-1-10.07Z"/></g><path class="cls-24" d="M526.9,356.39c0,1.68,13.16,47.35,13.16,47.35l19.43-1.87-5.32-45.48h-27.27Z"/><path class="cls-4" d="M526.9,356.39c0,.9,3.77,14.42,7.28,26.78,5.28,.25,15.24,.7,23.24,.96l-3.25-27.75h-27.27Z"/></g><g><g><path class="cls-22" d="M581.64,404.91l6.6,25.84s27.21-.8,29.76-1.51c2.55-.71-16.13-3.72-8.66-1.95,.73,.17-12.17-5.72-12.64-5.82l-2.28-18.99-12.78,2.44Z"/><path class="cls-28" d="M586.5,423.92s2.25,2.72,4.87,2.36c3.93-.53,5.33-4.82,5.33-4.82,0,0,2.23,1.05,10.65,3.87,3.91,1.31,4.91-1.02,9.66,.33,2.12,.6,5.13,3.64,4.24,4.05-.88,.41-31.44,4.49-32.59,4.09-1.15-.4-2.16-9.89-2.16-9.89Z"/></g><path class="cls-24" d="M596.48,356.34c.52,1.6,2.11,49.1,2.11,49.1l-19.06,4.23-8.99-44.9,25.93-8.42Z"/><path class="cls-4" d="M597.74,381.59c-.46-12.11-.99-24.45-1.26-25.25l-25.93,8.42,4.18,20.86c7.49,.16,15.91-.58,23.01-4.03Z"/></g><path class="cls-28" d="M533.44,161.98l-6.82,1.02s-6.71,70.33-6.71,84.96,.87,127.03,.87,127.03c0,0,57.54,14.76,97.44,0,0,0-33.42-114.39-35.6-146.98s-6.74-63.18-6.74-63.18l-4.79-2.4-37.66-.45Z"/><path class="cls-32" d="M528.56,162.71l15.51,42.25s29.31-32.34,31.84-43.55l-37.68-.35-9.67,1.65Z"/><path class="cls-16" d="M559.57,98.1s-1.37,.41-4.41,2.59c-3.03,2.18-5.88,0-8.7,1.3-2.83,1.3-5.03,5.72-8.84,4.56-3.81-1.15-7.07,1.37-8.34,6-1.27,4.64-7.98,4.43-10.52,9.97-2.54,5.54,2,8.14-2,12.37-3.99,4.24-5.99,6.78-5.62,10.77,.36,3.99,7.62,2.18,6.89,5.08-.73,2.9-.15,8.03,3.63,9.61,4.29,1.8,7.08-1.55,10.51-.53,2.21,.66,1.49,6.08,9.45,5.97,20.22-.29,17.96-67.71,17.96-67.71Z"/><polygon class="cls-24" points="539.19 158.76 568.02 162.62 570.77 163.09 568.02 159.35 563.62 156.58 562.17 156.13 545.95 155.36 539.19 158.76"/><path class="cls-27" d="M561.1,152.27c-.5-6.86,1.08-15.57,1.7-22.14l-3.95,.8-12.95,11.55s2.44,9.73-.61,14.07c-2.74,3.9-11.86,5.43-11.86,5.43l12.42,27.84c1.75,0,22.15-22.33,22.16-27.21,0,0-6.46-4.04-6.92-10.35Z"/><path class="cls-14" d="M561.57,154.65c-.24-.75-.41-1.54-.47-2.38-.5-6.86,1.08-15.57,1.7-22.14l-3.95,.8-12.95,11.55s1.71,6.84,.47,11.61c2.49,.49,8.43,1.39,15.2,.56Z"/><path class="cls-17" d="M560.85,132.99s3.21-5.19,6.51-3.95,2.21,7.05-2.29,9.33-6.39,1.51-6.39,1.51l2.17-6.89Z"/><path class="cls-27" d="M548.71,112.45c-5.51,.73-10.31,4.37-12.19,9.6-.24,.67-.46,1.38-.64,2.14-2.21,8.95-5.38,24.05,8.48,29.51,0,0,14.06-1.05,16.96-11.85,0,0,1.51-9.93,1.1-18.47,0,0-.64-10.92-13.71-10.92h0Z"/><path class="cls-10" d="M539.63,131.12s-1.12,2.98-3.21,3.8c-2.09,.81,2.05,2.59,3.21,1.94,1.16-.66,0-5.73,0-5.73Z"/><path class="cls-16" d="M546.25,125.5c-2.53,.27-.9-2.51,1.01-2.6,2.05-.1,5.34,.93,5.34,4.65,0,0-.03,.56-.62-.03-.17-.17-2.11-2.41-5.73-2.02Z"/><path class="cls-16" d="M537.89,125.39c2.53,.27,.9-2.51-1.01-2.6-2.05-.1-5.34,.93-5.34,4.65,0,0,.03,.56,.62-.03,.17-.17,2.11-2.41,5.73-2.02Z"/><path class="cls-19" d="M533.91,137s6.6,.71,11.77,1.43c11.47,1.59,12.43,15.28-.55,15.4-6.02,.05-9.68-4.92-10.84-9.18-1.18-4.33-.38-7.64-.38-7.64Z"/><path class="cls-16" d="M544.06,130.5c-.46-1.48,.98-3.06,2.54-2.86,1.44,.02,2.94,1.62,2.24,3.03-1.53-1.37-3.14-1.39-4.78-.17h0Z"/><path class="cls-16" d="M533.44,129.95c-.46-1.48,.98-3.06,2.54-2.86,1.44,.02,2.94,1.62,2.24,3.03-1.53-1.37-3.14-1.39-4.78-.17h0Z"/><path class="cls-6" d="M548.85,142.32s8.62-9.24,13.32-10.32"/><path class="cls-6" d="M561.6,139.74s-1.78,9.41-9,11.19"/><path class="cls-28" d="M575.9,161.41l63.78-57.95s16.8,18.63,15.24,26c0,0-30.59,39.24-81.82,60.2-6.57,2.69,2.8-28.25,2.8-28.25Z"/><path class="cls-28" d="M532.38,159.24s-41.76-51.29-53.6-70.66c0,0-21.6,13.57-20.99,22.77,0,0,42.52,63.84,81.41,85.3l-6.82-37.41Z"/><path class="cls-27" d="M646.94,99.56s5.15-13.05,6.82-12.55c1.66,.5-1.68,11.25-1.68,11.25l-5.14,1.3Z"/><path class="cls-16" d="M549.84,117.52c3.99,2.76,8.09,2.47,7.26,5.39-.83,2.91-2.54,5.17,1.58,6.2,4.12,1.03,3.54,2.87,2.92,3.98s-1.95,2.01-1.45,4.08c.46,1.92,2.39,2.84,2.02,4.71,7.85,.52,15.68,1.21,23.49,2.27-1.66-1.81-2.77-3.63-.23-5.73,4.58-3.8,3.19-13.16-1.22-15.49-6-3.18-3.53-9.65-11.15-9.72-6.55-.06-8.78-14.86-11.45-14.86s-6.72-2.14-6.72-2.14l-6.03,10.34s-3,8.23,.99,10.99Z"/><g><path class="cls-3" d="M531.06,87.9l25.68,19.81c.95,.95,2.27,1.59,3.69,1.78l35.49,1.87c1.1,.15,1.69-.97,.88-1.63l-27.14-20.85c-.8-.65-1.78-1.1-2.84-1.31l-34.72-1.21c-1.07-.21-1.77,.82-1.05,1.54Z"/><path class="cls-24" d="M595.92,111.36h-.1s-26.94-20.7-26.94-20.7c-.8-.65-1.78-1.1-2.84-1.31l-34.68-1.2-.31-.24c-.72-.72-.02-1.75,1.05-1.54l34.72,1.21c1.06,.21,2.04,.66,2.84,1.31l27.14,20.85c.82,.67,.22,1.78-.88,1.63Z"/><path class="cls-24" d="M566.94,87.6c1.01,.22,1.95,.66,2.72,1.28l27.14,20.85c.82,.67,.22,1.78-.88,1.63h-.1s-26.94-20.7-26.94-20.7c-.77-.62-1.71-1.06-2.72-1.28l.78-1.78Z"/><path class="cls-24" d="M578.38,104.9l-3.97,9.85s-8.56,1.11-19.06-3.49c-10.5-4.61-11.36-7.44-11.36-7.44l3.13-7.13,1.39-3.18c17.68-2.85,29.87,11.39,29.87,11.39Z"/><line class="cls-7" x1="591.11" y1="105.35" x2="584.75" y2="122.73"/><path class="cls-21" d="M585.13,121.74s.71,.12,.84,.54c.12,.41-.22,1-.53,.98-.31-.02-1.42-.11-1.63-.52-.21-.41,.14-.83,.22-.93,.2-.28,1.1-.06,1.1-.06Z"/><path class="cls-21" d="M585.57,122.66s-1.97,8.68-2.32,8.88l-.35,.2s-.66,2.5-.84,3.12c-.18,.62-.77,.85-.33-.86s-1.2,4.65-1.43,4.56c-.23-.08-.48,.15-.45-.76,.03-.91,1.81-6.66,1.81-6.66,0,0-.39,.8-.65,.68-.26-.11,3.38-9.7,3.38-9.7l1.19,.52Z"/></g><path class="cls-24" d="M562.17,156.13s10.71,.47,19.48,9.68c8.77,9.21,6.45,67.78,16.1,95.82,8.8,25.57,19.44,31.56,19.44,31.56l4.23,26.83c-1.18,1.11-18.58-5.38-25.01-7.7,0,0-21.03-34.09-20.49-62.68,.54-28.6,1.58-87.57-13.74-93.5Z"/><path class="cls-24" d="M545.95,155.36s-9.92-2.1-16.11,12.96c-6.2,15.06-23.57,124.54-18.74,147.82,0,0,9.65,17.73,10.26,18.18s9.26-16.9,10.03-20.17c.78-3.27,.69-150.96,14.56-158.78Z"/></g></g><path class="cls-24" d="M618.93,251.63c0,.15,0,.3-.01,.45,0,.09-.01,.18-.02,.27-.02,.18-.02,0,0-.07-.06,.12-.06,.35-.09,.48-.03,.15-.07,.29-.12,.43s-.09,.28-.15,.42c-.07,.18-.07,.08,0,0-.04,.04-.07,.15-.09,.2-.13,.28-.29,.56-.46,.82-.03,.05-.26,.31-.26,.37,0-.07,.15-.19,0,0-.05,.06-.1,.11-.14,.17-.2,.22-.41,.44-.63,.63-.07,.06-.14,.12-.21,.17-.15,.12,0-.04,.04-.03-.06-.01-.35,.24-.41,.28-.27,.17-.54,.31-.83,.44-.6,.26-.79,1.19-.45,1.71,.4,.62,1.07,.73,1.71,.45,2.76-1.22,4.59-4.18,4.59-7.17,0-.65-.58-1.28-1.25-1.25s-1.25,.55-1.25,1.25h0Z"/><path class="cls-24" d="M514.19,92c.09,1.65-.27,3.15-1.07,4.56-.21,.36-.43,.72-.69,1.05-.14,.19,.18-.21-.09,.11-.07,.08-.14,.17-.21,.25-.13,.15-.27,.29-.41,.43-.63,.64-1.14,1-1.97,1.45-.6,.32-.78,1.14-.45,1.71,.35,.6,1.11,.77,1.71,.45,3.58-1.91,5.88-5.96,5.67-10.01-.03-.67-.55-1.25-1.25-1.25-.65,0-1.28,.57-1.25,1.25h0Z"/><path class="cls-24" d="M500.82,352.74c3.41-1.41,7.4-.43,9.74,2.49,.42,.53,1.33,.44,1.77,0,.52-.52,.42-1.24,0-1.77-2.8-3.5-8.03-4.85-12.17-3.14-.62,.26-1.07,.83-.87,1.54,.16,.59,.91,1.13,1.54,.87h0Z"/><path class="cls-28" d="M503.32,194.89c1.76,1.04,3.83,1.39,5.58,2.42,.33,.19,.63,.39,.89,.66,.05,.05,.1,.11,.14,.16-.15-.17-.03-.04,0,0,.11,.17,.21,.34,.3,.52s-.08-.27,.02,.06c.02,.07,.05,.14,.07,.21,.05,.16,.08,.32,.12,.48,.02,.07,.04,.31,.01,.05,0,.07,.01,.14,.02,.22,0,.18,0,.36,0,.54,0,.33,.04-.17,0,.03-.02,.08-.03,.17-.05,.25-.03,.1-.15,.41-.04,.17-.07,.14-.14,.28-.24,.41,.2-.28-.31,.18,0,0-.07,.04-.13,.08-.2,.12-.09,.05,.22,.02-.01,0-.04,0-.16,.04-.2,.05,.24-.06,.09,0,.01,0,0,0-.35-.02-.15,0s-.12-.04-.13-.04c-.07-.01-.19-.1,.02,.02-.09-.05-.17-.1-.25-.15,.23,.16-.09-.11-.15-.18-.12-.14,.13,.24-.02-.04-.03-.06-.07-.12-.11-.18s-.07-.13-.09-.19c.1,.23,0,0,0-.06-.02-.09-.05-.18-.07-.27-.01-.06-.07-.38-.03-.11-.02-.15-.02-.3-.02-.45,0-.09,0-.19,.01-.28,.01-.21-.08,.28,0-.06,.04-.15,.07-.29,.12-.43,.1-.33-.07,.12,.03-.06,.05-.1,.11-.19,.17-.29,.11-.18-.25,.24,.07-.08,.1-.11,.2-.21,.31-.31,.18-.16,.23-.2,.44-.33,.44-.28,.75-.4,1.24-.55,1.04-.32,1.98-.42,3.03-.51,.67-.06,1.25-.53,1.25-1.25,0-.63-.57-1.31-1.25-1.25-2.4,.21-5.15,.55-6.84,2.49-1.42,1.64-1.45,4.27-.03,5.93s4.11,1.39,5.16-.52c.98-1.77,.55-4.12-.69-5.65-1.76-2.17-4.91-2.37-7.18-3.72-1.39-.82-2.65,1.34-1.26,2.16h0Z"/><path class="cls-28" d="M621.73,346.67l6.67-5.29c.51-.41,.46-1.35,0-1.77-.55-.5-1.22-.44-1.77,0l-6.67,5.29c-.51,.41-.46,1.35,0,1.77,.55,.5,1.22,.44,1.77,0h0Z"/></g></g></g></svg>